<svg id="Layer_1" data-name="Layer 1" xmlns="http://www.w3.org/2000/svg" viewBox="0 0 112.31 143.47"><defs><style>.cls-1{fill:#fff;}</style></defs><path class="cls-1" d="M55.8,143.47c-18.27,0-35.45-4.55-51.95-12.16-3.09-1.43-4-3.2-3.82-6.52,1.19-18.56,7.06-35.16,20.46-48.46,21.27-21.12,54.78-19.72,74.44,3,11.44,13.24,16.7,28.91,17.38,46.19a6.5,6.5,0,0,1-2.72,5C95.52,138.12,72.54,143.5,55.8,143.47Z"/><path class="cls-1" d="M28,28.45A28.44,28.44,0,0,1,56.16,0c15.6-.08,28.37,12.92,28.3,28.8-.06,15.51-13,28.35-28.4,28.14A28.35,28.35,0,0,1,28,28.45Z"/></svg>