<svg id="Layer_1" data-name="Layer 1" xmlns="http://www.w3.org/2000/svg" viewBox="0 0 142.14 125.36"><defs><style>.cls-1{fill:#fff;}</style></defs><path class="cls-1" d="M118.46,100.51c8.43,6.89,9.6,14.66,3.79,20.79a12.82,12.82,0,0,1-18.7-.22c-5.51-6-4.08-14,4-20.43H62c1.58,3.67,4.21,7.71,4.84,12,.4,2.73-1.52,6.48-3.54,8.77-4.83,5.48-13.21,5-18.17-.35-5.44-5.9-4.23-13.23,3.36-20.26-2.5-.55-5.17-.72-7.45-1.74-8.69-3.86-10.18-15.17-2.74-21.41,2-1.67,2.39-2.9,1.82-5.38q-6.8-29.65-13.16-59.39c-.68-3.16-2.06-4.07-5-4-5.33.15-10.67.06-16,0C2.75,8.93,0,7.83,0,4.3S2.87,0,6,0C13.37.1,20.7.13,28,0c3.58-.06,5.34,1.31,6.22,4.92,2.81,11.56,2.94,11.53,14.87,11.53H133.6c8.65,0,9.83,1.55,7.5,9.74-4.87,17.1-9.95,34.14-14.54,51.31-1.3,4.87-3.77,6.27-8.46,6.23-22.5-.15-45-.09-67.48,0-3.33,0-8.16-1-8.09,4,.07,4.87,4.82,3.48,7.9,3.49,21.5.09,43,0,64.48,0,1.17,0,2.34,0,3.5,0,3.35-.08,6.93.28,7.24,4.33S122.48,100.46,118.46,100.51Z"/></svg>