<svg id="Layer_1" data-name="Layer 1" xmlns="http://www.w3.org/2000/svg" viewBox="0 0 199.28 199.28"><defs><style>.cls-1{fill:#fff;}</style></defs><path class="cls-1" d="M199.28,99.85a99.5,99.5,0,0,1-100,99.43C44.45,199.25,0,154.33,0,99.05.05,44.23,44.93-.07,100.35,0,155.14.07,199.32,44.67,199.28,99.85Zm-12.35-.45c0-47.69-39.56-87.14-87.26-87.05-47.88.09-87.21,39.42-87.11,87.14.09,48.08,39.13,87.24,86.94,87.23A87.45,87.45,0,0,0,186.93,99.4Z"/><path class="cls-1" d="M99.3,106q-25.23,0-50.45,0c-1.82,0-4,.34-5.36-.53-1.86-1.21-4.08-3.33-4.26-5.23s1.61-4.38,3.18-6c.94-1,3.1-1,4.71-1q52.46-.08,104.9,0c1.47,0,3.44-.11,4.29.73,1.72,1.68,4,4.06,3.85,6s-2.58,4.2-4.54,5.52c-1.3.89-3.54.49-5.36.5Q124.78,106,99.3,106Z"/><path class="cls-1" d="M99.57,73.11c-14.33,0-28.65,0-43,0-2,0-4.39.13-5.78-.9-1.75-1.3-3.57-3.68-3.67-5.69-.09-1.76,1.78-4.15,3.44-5.32,1.44-1,3.81-.88,5.77-.89q43.23-.08,86.44,0c.83,0,1.67,0,2.5,0,4.77.3,7.37,2.57,7.18,6.52-.22,4.66-3.36,6.15-7.45,6.3-2.66.1-5.33,0-8,0Z"/><path class="cls-1" d="M99.74,138.63q-22.23,0-44.44,0c-5.94,0-8.41-1.86-8.39-6.1s2.73-6.36,8.32-6.37q44.7,0,89.38,0c5.16,0,7.82,2.23,7.88,6.29s-2.44,6.13-7.32,6.15C130,138.66,114.88,138.62,99.74,138.63Z"/></svg>