<svg id="Layer_1" data-name="Layer 1" xmlns="http://www.w3.org/2000/svg" viewBox="0 0 142.54 142.43"><defs><style>.cls-1{fill:#fff;}</style></defs><path class="cls-1" d="M92.42,100.53c-33.58,23.77-66.75,9.09-81-9.93A56.49,56.49,0,0,1,90.32,11.26c20.37,15.15,33.41,48.77,10.39,80.9l32.08,32c2.47,2.48,4.93,5,7.42,7.43,2.82,2.79,3.16,5.81.59,8.86-2.28,2.7-6.31,2.62-9.28-.31q-13.89-13.69-27.59-27.56C100.07,108.7,96.35,104.65,92.42,100.53Zm8.13-44.11c0-24.19-20.2-44.33-44.28-44.17a44.21,44.21,0,0,0,.12,88.41C80.42,100.86,100.55,80.7,100.55,56.42Z"/></svg>